<svg xmlns="http://www.w3.org/2000/svg" xmlns:xlink="http://www.w3.org/1999/xlink" viewBox="0 0 1100 710" width="1100" height="710"><defs><style>.cls-1{fill:none;}.cls-2{isolation:isolate;}.cls-3{fill:#fecc90;}.cls-4{fill:#151848;}.cls-5{fill:#ff885e;}.cls-6{fill:#9dd3ff;}.cls-7{fill:#558bff;}.cls-8{clip-path:url(#clip-path);}.cls-9{fill:#fff;}.cls-10,.cls-14{opacity:0.5;}.cls-10{mix-blend-mode:multiply;}.cls-11{clip-path:url(#clip-path-2);}.cls-12{clip-path:url(#clip-path-3);}.cls-13{clip-path:url(#clip-path-4);}</style><clipPath id="clip-path"><path class="cls-1" d="M689.78,220.65h27.09a0,0,0,0,1,0,0V409.28a13.54,13.54,0,0,1-13.54,13.54h0a13.54,13.54,0,0,1-13.54-13.54V220.65A0,0,0,0,1,689.78,220.65Z"/></clipPath><clipPath id="clip-path-2"><path class="cls-1" d="M755,398.5s50-14,60.37,15.84h0s10.45,5.53,5.8,20.61c-1.35,4.36-5.36,9-8.06,13.94-6.62,12.24-15.11,24-28,20.05-18.12-5.59-15.69-18.36-15.69-18.36l.79-9.52h0l5-22.28s1.28-11.36-11.48-15.29S755,398.5,755,398.5Z"/></clipPath><clipPath id="clip-path-3"><ellipse class="cls-1" cx="775.27" cy="438.65" rx="9.32" ry="5.27" transform="translate(-23.9 832.08) rotate(-55.71)"/></clipPath><clipPath id="clip-path-4"><path class="cls-1" d="M776.77,592.59A14.18,14.18,0,0,0,767,579.77l-19.5-6.29A18.21,18.21,0,0,0,726,581.79l-1.44,2.53c-1,1.29-2,2.73-3.22,4.37-31.67,43.82-16-41.25-16-41.25h0l1.48-6.49a15.52,15.52,0,0,0-5.75,8L685.8,598.87l-41.31,109.2H695.6l31.15-46.23-1.83,45.95h46.4l7-81.53Z"/></clipPath></defs><g class="cls-2"><g id="Layer_1" data-name="Layer 1"><path class="cls-3" d="M698.76,487.52l-60.42-54.16,9.08-11L693.7,457c2.76,2.43,55.85,30.19,58.57,27.72l23,5.51-18.94,21.38C750.23,515.16,703.37,492.84,698.76,487.52Z"/><ellipse class="cls-4" cx="679.78" cy="459.44" rx="19.64" ry="5" transform="translate(-83.16 761.29) rotate(-55.64)"/><polygon class="cls-4" points="647.13 435.35 668.7 475.65 690.87 443.23 659.47 428.02 647.13 435.35"/><rect class="cls-5" x="130.73" y="525.45" width="312.67" height="17.18" rx="8.59"/><rect class="cls-4" x="144.19" y="514" width="13.46" height="121.4" rx="6.73"/><rect class="cls-4" x="416.49" y="514" width="13.46" height="121.4" rx="6.73"/><path class="cls-5" d="M183.09,488.61h30.1a0,0,0,0,1,0,0V630.53a13.61,13.61,0,0,1-13.61,13.61H196.7a13.61,13.61,0,0,1-13.61-13.61V488.61A0,0,0,0,1,183.09,488.61Z" transform="translate(-55.54 22.6) rotate(-5.73)"/><path class="cls-5" d="M196.75,429.58,200.5,467l-15.71,1.58-8.7.87L150.59,472a37.93,37.93,0,1,0,46.16-42.43Z"/><path class="cls-3" d="M172.34,432a38,38,0,0,0-22,38.29c.06.57.13,1.13.21,1.69l25.5-2.56Z"/><path class="cls-3" d="M195.71,628.1,183.23,503.64l17.07-1.71,12.48,124.45Zm-9.2-121.77L198.4,624.81l11.1-1.11L197.61,505.21Z"/><rect class="cls-3" x="171.75" y="514.19" width="21.37" height="143.38" transform="translate(648.02 985.6) rotate(147.94)"/><rect class="cls-5" x="172.52" y="516.85" width="11.35" height="143.38" transform="translate(641.58 992.77) rotate(147.94)"/><path class="cls-4" d="M161.69,476.63a40.4,40.4,0,1,1-68.48,42.89"/><rect class="cls-4" x="129.77" y="524.35" width="35.47" height="13.04" rx="5.89" transform="translate(-259.27 159.23) rotate(-32.06)"/><rect class="cls-4" x="79.73" y="492.04" width="95.09" height="13.04" rx="5.89" transform="translate(-245.21 143.57) rotate(-32.06)"/><path class="cls-6" d="M310.78,508.91h-60V401.48C250.78,316.84,319.65,248,404.3,248H662.68a93.62,93.62,0,0,0,93.52-93.51V85.09l60,2.2v67.17C816.2,239.11,747.33,308,662.68,308H404.3a93.62,93.62,0,0,0-93.52,93.51Z"/><path class="cls-7" d="M310.78,508.91V401.48A93.62,93.62,0,0,1,404.3,308H662.68c84.65,0,153.52-68.86,153.52-153.51V85.09l-30,1.07v68.3A123.52,123.52,0,0,1,662.68,278H404.3A123.52,123.52,0,0,0,280.78,401.48V508.91h30Z"/><rect class="cls-7" x="487.23" y="227.52" width="90.57" height="100.96" rx="12.76"/><path class="cls-4" d="M487.23,278H577.8a0,0,0,0,1,0,0v38.89a11.59,11.59,0,0,1-11.59,11.59h-67.4a11.59,11.59,0,0,1-11.59-11.59V278A0,0,0,0,1,487.23,278Z"/><rect class="cls-5" x="130.73" y="579.43" width="312.67" height="127.55"/><rect class="cls-3" x="111.46" y="574.7" width="351.22" height="23.48" rx="11.74"/><rect class="cls-4" x="130.73" y="598.18" width="312.67" height="22.67"/><rect class="cls-7" x="738.42" y="82.24" width="93.81" height="51.3"/><rect class="cls-4" x="756.5" y="133.54" width="59.69" height="21.01"/><rect class="cls-7" x="233.93" y="404.92" width="93.81" height="51.3"/><rect class="cls-6" x="233.93" y="404.92" width="93.81" height="25.65"/><rect class="cls-6" x="738.42" y="82.24" width="93.81" height="25.65"/><rect class="cls-4" x="250.99" y="456.22" width="59.69" height="21.01"/><path class="cls-3" d="M689.78,236.8h27.09a0,0,0,0,1,0,0V409.28a13.54,13.54,0,0,1-13.54,13.54h0a13.54,13.54,0,0,1-13.54-13.54V236.8a0,0,0,0,1,0,0Z"/><g class="cls-8"><path class="cls-4" d="M639.79,318.13h95.14a0,0,0,0,1,0,0v0a66.07,66.07,0,0,1-66.07,66.07H639.79a0,0,0,0,1,0,0V318.13A0,0,0,0,1,639.79,318.13Z"/></g><path class="cls-5" d="M629.65,354.24h48.23a0,0,0,0,1,0,0V580.79a24.12,24.12,0,0,1-24.12,24.12h0a24.12,24.12,0,0,1-24.12-24.12V354.24A0,0,0,0,1,629.65,354.24Z"/><circle class="cls-9" cx="653.77" cy="580.53" r="10.02"/><path class="cls-5" d="M629.65,308H724.8a0,0,0,0,1,0,0v0a66.07,66.07,0,0,1-66.07,66.07H629.65a0,0,0,0,1,0,0V308A0,0,0,0,1,629.65,308Z"/><path class="cls-5" d="M598.6,308H660a0,0,0,0,1,0,0v27.09a0,0,0,0,1,0,0H625.69A27.09,27.09,0,0,1,598.6,308v0A0,0,0,0,1,598.6,308Z"/><path class="cls-3" d="M625.69,220.65H660a0,0,0,0,1,0,0v27.09a0,0,0,0,1,0,0H598.6a0,0,0,0,1,0,0v0a27.09,27.09,0,0,1,27.09-27.09Z"/><path class="cls-3" d="M669.63,183.65h0a47.24,47.24,0,0,1,47.24,47.24v16.85a0,0,0,0,1,0,0H622.39a0,0,0,0,1,0,0V230.89a47.24,47.24,0,0,1,47.24-47.24Z"/><path class="cls-5" d="M601.89,300.19h9.39a6.49,6.49,0,0,1,6.49,6.49v9.39a0,0,0,0,1,0,0H601.89a0,0,0,0,1,0,0V300.19A0,0,0,0,1,601.89,300.19Z" transform="translate(-39.27 521.47) rotate(-45)"/><path class="cls-5" d="M621.38,300.19h9.39a6.49,6.49,0,0,1,6.49,6.49v9.39a0,0,0,0,1,0,0H621.38a0,0,0,0,1,0,0V300.19A0,0,0,0,1,621.38,300.19Z" transform="translate(-33.56 535.25) rotate(-45)"/><path class="cls-5" d="M640.61,300.19H650a6.49,6.49,0,0,1,6.49,6.49v9.39a0,0,0,0,1,0,0H640.61a0,0,0,0,1,0,0V300.19A0,0,0,0,1,640.61,300.19Z" transform="translate(-27.93 548.85) rotate(-45)"/><path class="cls-5" d="M660.11,300.19h9.39a6.49,6.49,0,0,1,6.49,6.49v9.39a0,0,0,0,1,0,0H660.11a0,0,0,0,1,0,0V300.19A0,0,0,0,1,660.11,300.19Z" transform="translate(-22.22 562.63) rotate(-45)"/><path class="cls-3" d="M660.11,239.73h9.39a6.49,6.49,0,0,1,6.49,6.49v9.39a0,0,0,0,1,0,0H660.11a0,0,0,0,1,0,0V239.73A0,0,0,0,1,660.11,239.73Z" transform="translate(1315.55 -49.58) rotate(135)"/><path class="cls-3" d="M640.61,239.73H650a6.49,6.49,0,0,1,6.49,6.49v9.39a0,0,0,0,1,0,0H640.61a0,0,0,0,1,0,0V239.73A0,0,0,0,1,640.61,239.73Z" transform="translate(1282.28 -35.8) rotate(135)"/><path class="cls-3" d="M621.38,239.73h9.39a6.49,6.49,0,0,1,6.49,6.49v9.39a0,0,0,0,1,0,0H621.38a0,0,0,0,1,0,0V239.73A0,0,0,0,1,621.38,239.73Z" transform="translate(1249.45 -22.2) rotate(135)"/><path class="cls-3" d="M601.89,239.73h9.39a6.49,6.49,0,0,1,6.49,6.49v9.39a0,0,0,0,1,0,0H601.89a0,0,0,0,1,0,0V239.73A0,0,0,0,1,601.89,239.73Z" transform="translate(1216.17 -8.42) rotate(135)"/><path class="cls-3" d="M665.29,563.23h-23V320h23Zm-20-3h17V323h-17Z"/><rect class="cls-7" x="524.21" y="161.39" width="16.61" height="77.2" rx="8.31"/><rect class="cls-6" x="524.21" y="116.4" width="16.61" height="139.82" rx="8.31" transform="translate(718.82 -346.2) rotate(90)"/><path class="cls-7" d="M528.36,120.55h0a8.31,8.31,0,0,1,8.31,8.31V252.07a8.31,8.31,0,0,1-8.31,8.31h0a0,0,0,0,1,0,0V120.55A0,0,0,0,1,528.36,120.55Z" transform="translate(722.98 -342.05) rotate(90)"/><rect class="cls-4" x="524.21" y="194.62" width="16.61" height="7.97"/><ellipse class="cls-4" cx="649.64" cy="494.82" rx="19.64" ry="5" transform="translate(-125.49 751.82) rotate(-55.64)"/><path class="cls-4" d="M629.65,409.13,621,416.29a9.85,9.85,0,0,0-3.54,7.56V431a9.84,9.84,0,0,0,4.22,8.07l7.93,5.52Z"/><path class="cls-3" d="M670.87,532.78l-50.63-58.42,9.08-11,45.91,40.51a7.22,7.22,0,0,0,9.63-.06l43.3-31.66,10.25,35.46-49.1,28.25A14.7,14.7,0,0,1,670.87,532.78Z"/><ellipse class="cls-4" cx="704.84" cy="511.65" rx="8.44" ry="22.87" transform="matrix(0.85, -0.53, 0.53, 0.85, -164.09, 452.12)"/><polyline class="cls-4" points="728.18 465.55 692.71 492.27 716.98 531.03 738.41 507.65"/><polygon class="cls-4" points="616.98 470.73 638.55 511.03 660.72 478.6 629.32 463.4 616.98 470.73"/><path class="cls-4" d="M629.65,436.74l-5.46,2.11a17.86,17.86,0,0,0-10.12,9.94l-.77,1.9a7.58,7.58,0,0,0-.31,4.75l4,15.29,12.67-6.31Z"/><path class="cls-4" d="M627.75,453.73s6.6-11.67,7.82-9.12.12,14.53-7.82,20.69S627.75,453.73,627.75,453.73Z"/><path class="cls-3" d="M755,433.15l-5.75-1.78s7.37-26.79,20.48-27.54,20,31.34,20,31.34l1.81,32-35.92-11.09a7.55,7.55,0,0,1-5-9.53Z"/><path class="cls-3" d="M762,451.2l-5.66,18.33,39.95,12.32s-9.78-8.11-8.64-17.65-17.7-13.55-17.7-13.55Z"/><path class="cls-7" d="M770.25,441.06l5-22.28s1.28-11.36-11.48-15.3-8.7-5-8.7-5,50-14,60.37,15.84-40.07,33.14-40.07,33.14Z"/><g class="cls-10"><path class="cls-5" d="M780.92,463.19s-8.06,1.58-4,7.77,5.17,6.53,5.17,6.53l-25.79-8,4.36-14.37Z"/><path class="cls-5" d="M755,433.15l34.73,2,1.81,32-35.92-11.09a7.55,7.55,0,0,1-5-9.53Z"/><path class="cls-5" d="M770.24,406.51s-12.67,4.35-19.31,25.39l4,1.25,15,4.14,7.34-9.23,3.38-20.76Z"/></g><path class="cls-7" d="M815.41,414.34s10.45,5.53,5.8,20.61c-1.35,4.36-5.36,9-8.06,13.94-6.62,12.24-15.11,24-28,20.05-18.12-5.6-15.69-18.36-15.69-18.36l.79-9.52Z"/><g class="cls-11"><path class="cls-4" d="M769.14,407.43s5.61-6.06,17.11-2.06,6.17,8.19,11.4,13.1,7.91,1.54,11,6.23-2.1,9.24-.94,12.75-.46,11.69-3.07,14.33-7.48,5.79-7.7,8-4.37,13.18-4.78,13.06-20.92-7.95-20.92-7.95L761,442.67Z"/></g><ellipse class="cls-3" cx="775.27" cy="438.65" rx="9.32" ry="5.27" transform="translate(-23.9 832.08) rotate(-55.71)"/><g class="cls-10"><g class="cls-12"><ellipse class="cls-5" cx="774.47" cy="441.25" rx="9.32" ry="5.27" transform="matrix(0.56, -0.83, 0.83, 0.56, -26.4, 832.55)"/></g></g><path class="cls-7" d="M815.35,415.11s-4.5-12,9.68-6.3S814.83,408.24,815.35,415.11Z"/><path class="cls-4" d="M686.79,629.07,722,473.93a13.36,13.36,0,0,1,16.64-9.76L812,484.91a11.77,11.77,0,0,1,7.93,15.14l-44.25,129Z"/><polygon class="cls-7" points="734.37 462.06 742.91 578.52 757.62 583.27 752.61 465.3 734.37 462.06"/><path class="cls-7" d="M745.49,610.36a1.5,1.5,0,0,0,.89-2.87,1.5,1.5,0,0,0-.89,2.87Z"/><path class="cls-7" d="M799,478.36,757.31,579.85s12,5.28,11.92,3.58S814.12,483,814.12,483Z"/><polygon class="cls-7" points="685.8 598.87 644.49 708.07 695.6 708.07 742.49 638.48 736.3 618.49 685.8 598.87"/><polygon class="cls-7" points="728.48 618.49 724.92 707.79 771.32 707.79 778.35 626.26 728.48 618.49"/><path class="cls-7" d="M726,581.79l-26.95,47.28,79.26-2.81-1.58-33.67A14.18,14.18,0,0,0,767,579.77l-19.5-6.29A18.21,18.21,0,0,0,726,581.79Z"/><path class="cls-7" d="M706.81,541h0a15.52,15.52,0,0,0-5.75,8L685.8,598.87c-2.5,6.58,3.79,23.29,5.07,30.2l1.84,4.69-2.83-18.29Z"/><path class="cls-7" d="M705.33,547.44s-15.62,85.07,16,41.25c32.29-44.69-18.06,45.07-18.06,45.07l-14.82-17Z"/><polygon class="cls-6" points="753.04 633.76 753.04 659 760.73 664.54 769.63 659 773.05 633.76 753.04 633.76"/><polygon class="cls-6" points="716.87 620.85 706.34 643.79 710.35 652.75 721.4 650.71 738.72 629.07 716.87 620.85"/><path class="cls-7" d="M706.34,616.36c.16,0,30,23.26,68.23,17.4,3.78-17.76-33.54-20.2-34.12-20.2S706.34,616.36,706.34,616.36Z"/><g class="cls-13"><g class="cls-14"><path class="cls-4" d="M761.15,570.51s-29,24.42-14.77,37c24.51,21.58,35.47,58-7.66,43.69-20.4-6.75-30.52-8.27-30.11,11.36,1.08,50.87-36.81,18-35.66,33.43,1,14.21,17.84,28.34,4.28,27.85s167,32.25,168.84,20.52S878.81,555,882.23,552.87s-174.36-34.61-170.81-32.24S761.15,570.51,761.15,570.51Z"/></g></g><g class="cls-14"><polygon class="cls-4" points="799.04 478.36 758.99 575.77 770.78 579.47 814.12 483.01 799.04 478.36"/></g><polygon class="cls-6" points="741.11 563.19 741.11 572.6 771.99 582.64 776.31 572.92 741.11 563.19"/><path class="cls-4" d="M629.65,409.13,621,416.29a9.85,9.85,0,0,0-3.54,7.56V431a9.84,9.84,0,0,0,4.22,8.07l6.38,4.44a5.09,5.09,0,0,0,3.43.87l6.81.1a4.35,4.35,0,0,0,3.85-4.44l-.27-9.41a4.34,4.34,0,0,0-3.49-4.13l-8.78-4.12Z"/><path class="cls-6" d="M512.6,420.84a33.66,33.66,0,1,1-67.31,0c0-32.59,33.65-65,33.65-65S512.6,387.89,512.6,420.84Z"/><path class="cls-9" d="M503.25,436.87c-5.5,7.77-13.64,11.46-18.19,8.24s3.76-9.07,9.26-16.83,6.1-14.51,10.65-11.3S508.75,429.11,503.25,436.87Z"/><rect class="cls-7" x="280.83" y="482.76" width="29.85" height="91.94"/><rect class="cls-6" x="250.99" y="482.76" width="29.85" height="91.94"/></g></g></svg>
